<?xml version="1.0" encoding="UTF-8" standalone="no"?><!DOCTYPE svg PUBLIC "-//W3C//DTD SVG 1.1//EN" "http://www.w3.org/Graphics/SVG/1.1/DTD/svg11.dtd"><svg width="100%" height="100%" viewBox="0 0 4514 954" version="1.1" xmlns="http://www.w3.org/2000/svg" xmlns:xlink="http://www.w3.org/1999/xlink" xml:space="preserve" xmlns:serif="http://www.serif.com/" style="fill-rule:evenodd;clip-rule:evenodd;stroke-linejoin:round;stroke-miterlimit:2;"><path d="M971.779,1.188l218.792,-0.004c-0.129,132.317 -4.917,293.446 1.275,422.467c7.579,-40.804 12.454,-70.896 47.379,-99.15c34.912,-28.246 96.163,-36.196 139.433,-29.404c77.55,12.179 124.521,51.154 169.75,110.825c-16.488,24.025 -36.125,71.087 -43.75,100.033c-33.138,125.737 -19.692,211.717 42.233,323.871c-7.971,12.625 -20.033,27.2 -29.446,39.229c-68.429,72.879 -179.733,103.4 -273.675,53.783c-41.229,-21.775 -47.767,-69.6 -57.808,-111.85c-0.346,42.379 1.508,88.425 2.396,131.054l-216.558,-0.154l-0.021,-940.7Zm297.617,511.413c-62.212,13.404 -101.871,74.617 -88.683,136.896c13.188,62.275 74.246,102.154 136.554,89.183c62.617,-13.037 102.725,-74.479 89.471,-137.067c-13.25,-62.583 -74.817,-102.487 -137.342,-89.012Zm-726.629,-210.646c78.625,-10.921 130.804,22.204 166.6,90.296c-2.125,-27.65 -2.371,-58.017 -3.096,-85.954c70.721,-1.071 145.292,0.45 216.317,0.75c0.213,205.504 -4.646,431.492 2.062,634.708l-222.354,0.013l0.204,-72.679c-0.037,-8.263 -0.608,-17.621 -0.908,-25.988c-25.025,49.838 -56.858,89.533 -115.133,99.438c-66.621,10.842 -136.617,-9.792 -191.092,-48.587c-146.971,-104.663 -170.883,-326.233 -66.425,-468.483c53.708,-73.142 125.163,-110.362 213.825,-123.512Zm32.3,209.783c-63.546,10.708 -106.346,70.967 -95.538,134.513c10.808,63.546 71.121,106.258 134.633,95.346c63.367,-10.887 105.954,-71.046 95.171,-134.45c-10.783,-63.404 -70.862,-106.096 -134.267,-95.408Zm2266.133,-215.713c108.908,-5.721 125.675,50.142 146.471,141.362c1.796,-39.421 0.133,-87.425 -0.213,-127.454l209.521,-0.033l-0.175,631.058l-211.275,-1.058l2.583,-139.575c-0.304,-8.654 1.221,-5.288 -2.717,-11.367c-13.546,28.85 -8.133,81.967 -36.492,115.583c-19.492,24.829 -52.25,40.688 -84.467,42.475c-172.633,9.575 -310.521,-128.704 -324.996,-292.379c-8.446,-86.737 18.221,-173.246 74.042,-240.162c57.212,-68.108 139.117,-110.712 227.717,-118.45Zm20.042,208.238c-64.787,6.408 -112.283,63.879 -106.388,128.733c5.892,64.85 62.971,112.817 127.85,107.433c65.612,-5.438 114.225,-63.317 108.267,-128.9c-5.962,-65.583 -64.208,-113.746 -129.729,-107.267Zm1281.129,-208.192c181.083,-22.95 346.333,105.538 368.75,286.696c22.458,181.162 -106.458,346.104 -287.625,368.046c-180.458,21.85 -344.583,-106.479 -366.917,-286.925c-22.375,-180.442 105.458,-344.954 285.792,-367.817Zm34.75,209.729c-66.333,3.258 -117.417,59.679 -114.125,126c3.25,66.325 59.708,117.425 126,114.117c66.292,-3.304 117.333,-59.708 114.042,-125.996c-3.292,-66.292 -59.667,-117.379 -125.917,-114.121Zm-2356.063,-206.45c178.679,-15.837 336.438,116.021 352.604,294.708c16.171,178.688 -115.354,336.733 -293.967,353.246c-179.092,16.554 -337.617,-115.429 -353.829,-294.596c-16.213,-179.167 116.042,-337.479 295.192,-353.358Zm6.546,206.938c-41.637,7.242 -76.183,36.292 -90.463,76.079c-14.279,39.787 -6.096,84.179 21.433,116.258c27.525,32.075 70.154,46.892 111.638,38.804c63.233,-12.333 104.746,-73.292 93.062,-136.662c-11.679,-63.371 -72.2,-105.517 -135.671,-94.479Zm-1827.604,-505.354c74.283,-2.092 158.1,-0.033 233.138,0.088c-1.842,313.096 -1.812,626.196 0.092,939.287c-13.629,2.938 -191.229,1.571 -214.271,1.558c2.288,-188.483 -0.042,-381.433 -0.071,-570.438l0.538,-183.496c0.404,-72.154 6.258,-118.075 -19.425,-187Zm3245.829,308.096l210.542,0.525l0.292,102.312c26.167,-63.312 40.792,-102.212 116.083,-101.446l0.875,223.2c-116.333,28.742 -113.625,98.137 -112.75,199.221c-0.5,69.104 -0.292,138.208 0.583,207.308c-70.458,-0.983 -144.042,0.425 -214.754,0.738l-0.871,-631.858Zm-728.858,-9.204c1.45,0.312 5.646,2.6 7.192,3.371c7.2,27.667 4.533,170.371 10.204,215.629c-124.113,69.233 -112.771,117.592 -111.775,242.971l1.387,177.617l-217.758,-0.438l-0.029,-58.162l0.371,-571.987l217.808,0.658c-0.554,28.079 -0.583,56.167 -0.088,84.246c28.725,-50.458 41.467,-66.271 92.688,-93.904Zm1103.525,10.579l210.875,0.154l0.125,417.929c0.292,67.779 5.167,146.113 1.583,212.717c-70.583,-1.329 -143.208,-0.571 -213.917,-0.65l1.333,-630.15Zm-27.667,-309.092c78.75,-1.029 159.542,-0.125 238.458,-0.154l-0.167,252.554l-211.833,-0.529c-0.75,-64.208 5.292,-147.6 -5.917,-210.067c-1.167,-6.408 -16.458,-34.304 -20.542,-41.804Z" style="fill:#fff;"/></svg>